<?xml version="1.0" encoding="utf-8" standalone="no"?>
<!DOCTYPE svg PUBLIC "-//W3C//DTD SVG 1.1//EN"
  "http://www.w3.org/Graphics/SVG/1.1/DTD/svg11.dtd">
<svg xmlns:xlink="http://www.w3.org/1999/xlink" width="460.8pt" height="345.6pt" viewBox="0 0 460.8 345.6" xmlns="http://www.w3.org/2000/svg" version="1.1">
 <metadata>
  <rdf:RDF xmlns:dc="http://purl.org/dc/elements/1.1/" xmlns:cc="http://creativecommons.org/ns#" xmlns:rdf="http://www.w3.org/1999/02/22-rdf-syntax-ns#">
   <cc:Work>
    <dc:type rdf:resource="http://purl.org/dc/dcmitype/StillImage"/>
    <dc:date>2022-08-04T23:38:20.308037</dc:date>
    <dc:format>image/svg+xml</dc:format>
    <dc:creator>
     <cc:Agent>
      <dc:title>Matplotlib v3.5.2, https://matplotlib.org/</dc:title>
     </cc:Agent>
    </dc:creator>
   </cc:Work>
  </rdf:RDF>
 </metadata>
 <defs>
  <style type="text/css">*{stroke-linejoin: round; stroke-linecap: butt}</style>
 </defs>
 <g id="figure_1">
  <g id="patch_1">
   <path d="M 0 345.6 
L 460.8 345.6 
L 460.8 0 
L 0 0 
z
" style="fill: #ffffff"/>
  </g>
  <g id="axes_1">
   <g id="patch_2">
    <path d="M 57.6 307.584 
L 414.72 307.584 
L 414.72 41.472 
L 57.6 41.472 
z
" style="fill: #ffffff"/>
   </g>
   <g id="patch_3">
    <path d="M 102.24 339.396187 
L 102.24 339.396187 
L 102.24 339.396187 
L 102.24 339.396187 
z
" clip-path="url(#p96bf9c46e5)" style="fill: #3274a1; stroke: #3f3f3f; stroke-width: 0.75; stroke-linejoin: miter"/>
   </g>
   <g id="PolyCollection_1">
    <defs>
     <path id="me9d60fc683" d="M 85.309183 -67.239322 
L 83.458817 -67.239322 
L 83.19915 -69.336952 
L 82.884568 -71.434582 
L 82.508762 -73.532211 
L 82.066102 -75.629841 
L 81.552049 -77.727471 
L 80.963588 -79.825101 
L 80.299641 -81.922731 
L 79.561447 -84.020361 
L 78.752859 -86.117991 
L 77.88054 -88.21562 
L 76.954016 -90.31325 
L 75.985582 -92.41088 
L 74.990037 -94.50851 
L 73.984266 -96.60614 
L 72.986668 -98.70377 
L 72.016478 -100.8014 
L 71.093009 -102.89903 
L 70.234855 -104.996659 
L 69.459129 -107.094289 
L 68.780756 -109.191919 
L 68.211885 -111.289549 
L 67.761448 -113.387179 
L 67.434887 -115.484809 
L 67.234067 -117.582439 
L 67.157372 -119.680068 
L 67.199953 -121.777698 
L 67.35412 -123.875328 
L 67.609836 -125.972958 
L 67.955272 -128.070588 
L 68.377375 -130.168218 
L 68.862435 -132.265848 
L 69.396594 -134.363477 
L 69.966281 -136.461107 
L 70.558568 -138.558737 
L 71.161425 -140.656367 
L 71.763895 -142.753997 
L 72.356178 -144.851627 
L 72.929658 -146.949257 
L 73.476888 -149.046886 
L 73.991534 -151.144516 
L 74.468314 -153.242146 
L 74.902939 -155.339776 
L 75.292058 -157.437406 
L 75.633217 -159.535036 
L 75.924833 -161.632666 
L 76.166182 -163.730295 
L 76.357395 -165.827925 
L 76.499455 -167.925555 
L 76.594203 -170.023185 
L 76.644328 -172.120815 
L 76.653356 -174.218445 
L 76.625626 -176.316075 
L 76.566245 -178.413705 
L 76.481024 -180.511334 
L 76.376395 -182.608964 
L 76.259293 -184.706594 
L 76.137017 -186.804224 
L 76.017058 -188.901854 
L 75.906903 -190.999484 
L 75.813818 -193.097114 
L 75.744621 -195.194743 
L 75.705454 -197.292373 
L 75.701565 -199.390003 
L 75.737122 -201.487633 
L 75.815061 -203.585263 
L 75.93699 -205.682893 
L 76.103151 -207.780523 
L 76.312441 -209.878152 
L 76.562503 -211.975782 
L 76.849867 -214.073412 
L 77.17014 -216.171042 
L 77.518233 -218.268672 
L 77.888598 -220.366302 
L 78.275472 -222.463932 
L 78.673106 -224.561561 
L 79.075964 -226.659191 
L 79.478891 -228.756821 
L 79.877233 -230.854451 
L 80.266914 -232.952081 
L 80.644473 -235.049711 
L 81.007065 -237.147341 
L 81.35243 -239.24497 
L 81.678849 -241.3426 
L 81.98508 -243.44023 
L 82.270303 -245.53786 
L 82.534057 -247.63549 
L 82.776194 -249.73312 
L 82.996836 -251.83075 
L 83.196342 -253.92838 
L 83.375282 -256.026009 
L 83.534417 -258.123639 
L 83.67468 -260.221269 
L 83.797152 -262.318899 
L 83.903043 -264.416529 
L 83.993661 -266.514159 
L 84.070384 -268.611789 
L 84.134627 -270.709418 
L 84.18781 -272.807048 
L 84.231322 -274.904678 
L 84.536678 -274.904678 
L 84.536678 -274.904678 
L 84.58019 -272.807048 
L 84.633373 -270.709418 
L 84.697616 -268.611789 
L 84.774339 -266.514159 
L 84.864957 -264.416529 
L 84.970848 -262.318899 
L 85.09332 -260.221269 
L 85.233583 -258.123639 
L 85.392718 -256.026009 
L 85.571658 -253.92838 
L 85.771164 -251.83075 
L 85.991806 -249.73312 
L 86.233943 -247.63549 
L 86.497697 -245.53786 
L 86.78292 -243.44023 
L 87.089151 -241.3426 
L 87.41557 -239.24497 
L 87.760935 -237.147341 
L 88.123527 -235.049711 
L 88.501086 -232.952081 
L 88.890767 -230.854451 
L 89.289109 -228.756821 
L 89.692036 -226.659191 
L 90.094894 -224.561561 
L 90.492528 -222.463932 
L 90.879402 -220.366302 
L 91.249767 -218.268672 
L 91.59786 -216.171042 
L 91.918133 -214.073412 
L 92.205497 -211.975782 
L 92.455559 -209.878152 
L 92.664849 -207.780523 
L 92.83101 -205.682893 
L 92.952939 -203.585263 
L 93.030878 -201.487633 
L 93.066435 -199.390003 
L 93.062546 -197.292373 
L 93.023379 -195.194743 
L 92.954182 -193.097114 
L 92.861097 -190.999484 
L 92.750942 -188.901854 
L 92.630983 -186.804224 
L 92.508707 -184.706594 
L 92.391605 -182.608964 
L 92.286976 -180.511334 
L 92.201755 -178.413705 
L 92.142374 -176.316075 
L 92.114644 -174.218445 
L 92.123672 -172.120815 
L 92.173797 -170.023185 
L 92.268545 -167.925555 
L 92.410605 -165.827925 
L 92.601818 -163.730295 
L 92.843167 -161.632666 
L 93.134783 -159.535036 
L 93.475942 -157.437406 
L 93.865061 -155.339776 
L 94.299686 -153.242146 
L 94.776466 -151.144516 
L 95.291112 -149.046886 
L 95.838342 -146.949257 
L 96.411822 -144.851627 
L 97.004105 -142.753997 
L 97.606575 -140.656367 
L 98.209432 -138.558737 
L 98.801719 -136.461107 
L 99.371406 -134.363477 
L 99.905565 -132.265848 
L 100.390625 -130.168218 
L 100.812728 -128.070588 
L 101.158164 -125.972958 
L 101.41388 -123.875328 
L 101.568047 -121.777698 
L 101.610628 -119.680068 
L 101.533933 -117.582439 
L 101.333113 -115.484809 
L 101.006552 -113.387179 
L 100.556115 -111.289549 
L 99.987244 -109.191919 
L 99.308871 -107.094289 
L 98.533145 -104.996659 
L 97.674991 -102.89903 
L 96.751522 -100.8014 
L 95.781332 -98.70377 
L 94.783734 -96.60614 
L 93.777963 -94.50851 
L 92.782418 -92.41088 
L 91.813984 -90.31325 
L 90.88746 -88.21562 
L 90.015141 -86.117991 
L 89.206553 -84.020361 
L 88.468359 -81.922731 
L 87.804412 -79.825101 
L 87.215951 -77.727471 
L 86.701898 -75.629841 
L 86.259238 -73.532211 
L 85.883432 -71.434582 
L 85.56885 -69.336952 
L 85.309183 -67.239322 
z
" style="stroke: #3f3f3f; stroke-width: 1.5"/>
    </defs>
    <g clip-path="url(#p96bf9c46e5)">
     <use xlink:href="#me9d60fc683" x="0" y="345.6" style="fill: #3274a1; stroke: #3f3f3f; stroke-width: 1.5"/>
    </g>
   </g>
   <g id="patch_4">
    <path d="M 102.24 339.396187 
L 102.24 339.396187 
L 102.24 339.396187 
L 102.24 339.396187 
z
" clip-path="url(#p96bf9c46e5)" style="fill: #e1812c; stroke: #3f3f3f; stroke-width: 0.75; stroke-linejoin: miter"/>
   </g>
   <g id="PolyCollection_2">
    <defs>
     <path id="m94f577f8b8" d="M 120.582106 -68.089488 
L 119.609894 -68.089488 
L 119.459336 -70.123032 
L 119.271392 -72.156576 
L 119.039749 -74.19012 
L 118.757883 -76.223664 
L 118.419307 -78.257208 
L 118.017871 -80.290752 
L 117.548127 -82.324296 
L 117.005715 -84.35784 
L 116.387788 -86.391383 
L 115.693412 -88.424927 
L 114.923952 -90.458471 
L 114.08337 -92.492015 
L 113.178447 -94.525559 
L 112.218859 -96.559103 
L 111.217121 -98.592647 
L 110.188354 -100.626191 
L 109.1499 -102.659735 
L 108.120773 -104.693279 
L 107.120982 -106.726823 
L 106.170759 -108.760367 
L 105.289733 -110.793911 
L 104.496106 -112.827455 
L 103.805876 -114.860999 
L 103.232168 -116.894542 
L 102.784703 -118.928086 
L 102.469454 -120.96163 
L 102.288485 -122.995174 
L 102.24 -125.028718 
L 102.31857 -127.062262 
L 102.515525 -129.095806 
L 102.819473 -131.12935 
L 103.216901 -133.162894 
L 103.692814 -135.196438 
L 104.231375 -137.229982 
L 104.816498 -139.263526 
L 105.432385 -141.29707 
L 106.063961 -143.330614 
L 106.697231 -145.364158 
L 107.319532 -147.397702 
L 107.919718 -149.431245 
L 108.488266 -151.464789 
L 109.017338 -153.498333 
L 109.500816 -155.531877 
L 109.934305 -157.565421 
L 110.315134 -159.598965 
L 110.642337 -161.632509 
L 110.916626 -163.666053 
L 111.140325 -165.699597 
L 111.317281 -167.733141 
L 111.45271 -169.766685 
L 111.552993 -171.800229 
L 111.625403 -173.833773 
L 111.677776 -175.867317 
L 111.718122 -177.900861 
L 111.754216 -179.934405 
L 111.79318 -181.967948 
L 111.841085 -184.001492 
L 111.902621 -186.035036 
L 111.980839 -188.06858 
L 112.07702 -190.102124 
L 112.190662 -192.135668 
L 112.319607 -194.169212 
L 112.460299 -196.202756 
L 112.608149 -198.2363 
L 112.757994 -200.269844 
L 112.904603 -202.303388 
L 113.043186 -204.336932 
L 113.16988 -206.370476 
L 113.282147 -208.40402 
L 113.379071 -210.437564 
L 113.461507 -212.471107 
L 113.532086 -214.504651 
L 113.595064 -216.538195 
L 113.656023 -218.571739 
L 113.721466 -220.605283 
L 113.798317 -222.638827 
L 113.893391 -224.672371 
L 114.012866 -226.705915 
L 114.161802 -228.739459 
L 114.343754 -230.773003 
L 114.560499 -232.806547 
L 114.811909 -234.840091 
L 115.095961 -236.873635 
L 115.408888 -238.907179 
L 115.745448 -240.940723 
L 116.099284 -242.974267 
L 116.463339 -245.00781 
L 116.830291 -247.041354 
L 117.192972 -249.074898 
L 117.544744 -251.108442 
L 117.879799 -253.141986 
L 118.19338 -255.17553 
L 118.481906 -257.209074 
L 118.743014 -259.242618 
L 118.975511 -261.276162 
L 119.179277 -263.309706 
L 119.355105 -265.34325 
L 119.504521 -267.376794 
L 119.629593 -269.410338 
L 120.562407 -269.410338 
L 120.562407 -269.410338 
L 120.687479 -267.376794 
L 120.836895 -265.34325 
L 121.012723 -263.309706 
L 121.216489 -261.276162 
L 121.448986 -259.242618 
L 121.710094 -257.209074 
L 121.99862 -255.17553 
L 122.312201 -253.141986 
L 122.647256 -251.108442 
L 122.999028 -249.074898 
L 123.361709 -247.041354 
L 123.728661 -245.00781 
L 124.092716 -242.974267 
L 124.446552 -240.940723 
L 124.783112 -238.907179 
L 125.096039 -236.873635 
L 125.380091 -234.840091 
L 125.631501 -232.806547 
L 125.848246 -230.773003 
L 126.030198 -228.739459 
L 126.179134 -226.705915 
L 126.298609 -224.672371 
L 126.393683 -222.638827 
L 126.470534 -220.605283 
L 126.535977 -218.571739 
L 126.596936 -216.538195 
L 126.659914 -214.504651 
L 126.730493 -212.471107 
L 126.812929 -210.437564 
L 126.909853 -208.40402 
L 127.02212 -206.370476 
L 127.148814 -204.336932 
L 127.287397 -202.303388 
L 127.434006 -200.269844 
L 127.583851 -198.2363 
L 127.731701 -196.202756 
L 127.872393 -194.169212 
L 128.001338 -192.135668 
L 128.11498 -190.102124 
L 128.211161 -188.06858 
L 128.289379 -186.035036 
L 128.350915 -184.001492 
L 128.39882 -181.967948 
L 128.437784 -179.934405 
L 128.473878 -177.900861 
L 128.514224 -175.867317 
L 128.566597 -173.833773 
L 128.639007 -171.800229 
L 128.73929 -169.766685 
L 128.874719 -167.733141 
L 129.051675 -165.699597 
L 129.275374 -163.666053 
L 129.549663 -161.632509 
L 129.876866 -159.598965 
L 130.257695 -157.565421 
L 130.691184 -155.531877 
L 131.174662 -153.498333 
L 131.703734 -151.464789 
L 132.272282 -149.431245 
L 132.872468 -147.397702 
L 133.494769 -145.364158 
L 134.128039 -143.330614 
L 134.759615 -141.29707 
L 135.375502 -139.263526 
L 135.960625 -137.229982 
L 136.499186 -135.196438 
L 136.975099 -133.162894 
L 137.372527 -131.12935 
L 137.676475 -129.095806 
L 137.87343 -127.062262 
L 137.952 -125.028718 
L 137.903515 -122.995174 
L 137.722546 -120.96163 
L 137.407297 -118.928086 
L 136.959832 -116.894542 
L 136.386124 -114.860999 
L 135.695894 -112.827455 
L 134.902267 -110.793911 
L 134.021241 -108.760367 
L 133.071018 -106.726823 
L 132.071227 -104.693279 
L 131.0421 -102.659735 
L 130.003646 -100.626191 
L 128.974879 -98.592647 
L 127.973141 -96.559103 
L 127.013553 -94.525559 
L 126.10863 -92.492015 
L 125.268048 -90.458471 
L 124.498588 -88.424927 
L 123.804212 -86.391383 
L 123.186285 -84.35784 
L 122.643873 -82.324296 
L 122.174129 -80.290752 
L 121.772693 -78.257208 
L 121.434117 -76.223664 
L 121.152251 -74.19012 
L 120.920608 -72.156576 
L 120.732664 -70.123032 
L 120.582106 -68.089488 
z
" style="stroke: #3f3f3f; stroke-width: 1.5"/>
    </defs>
    <g clip-path="url(#p96bf9c46e5)">
     <use xlink:href="#m94f577f8b8" x="0" y="345.6" style="fill: #e1812c; stroke: #3f3f3f; stroke-width: 1.5"/>
    </g>
   </g>
   <g id="PolyCollection_3">
    <defs>
     <path id="m7a5bf24837" d="M 174.30585 -78.412903 
L 173.02215 -78.412903 
L 172.889947 -80.472448 
L 172.736357 -82.531992 
L 172.559221 -84.591536 
L 172.356423 -86.651081 
L 172.125956 -88.710625 
L 171.865987 -90.77017 
L 171.574933 -92.829714 
L 171.251534 -94.889258 
L 170.894937 -96.948803 
L 170.504763 -99.008347 
L 170.081186 -101.067891 
L 169.624988 -103.127436 
L 169.13761 -105.18698 
L 168.621182 -107.246524 
L 168.07854 -109.306069 
L 167.51321 -111.365613 
L 166.92938 -113.425157 
L 166.331835 -115.484702 
L 165.725878 -117.544246 
L 165.117216 -119.60379 
L 164.511829 -121.663335 
L 163.915825 -123.722879 
L 163.335273 -125.782423 
L 162.776037 -127.841968 
L 162.243603 -129.901512 
L 161.742916 -131.961056 
L 161.27823 -134.020601 
L 160.852983 -136.080145 
L 160.469687 -138.139689 
L 160.129865 -140.199234 
L 159.834012 -142.258778 
L 159.5816 -144.318323 
L 159.371118 -146.377867 
L 159.200146 -148.437411 
L 159.065462 -150.496956 
L 158.963178 -152.5565 
L 158.888886 -154.616044 
L 158.837825 -156.675589 
L 158.805047 -158.735133 
L 158.785577 -160.794677 
L 158.774564 -162.854222 
L 158.767412 -164.913766 
L 158.759889 -166.97331 
L 158.748211 -169.032855 
L 158.729097 -171.092399 
L 158.699807 -173.151943 
L 158.658145 -175.211488 
L 158.602456 -177.271032 
L 158.531603 -179.330576 
L 158.44494 -181.390121 
L 158.34228 -183.449665 
L 158.223872 -185.509209 
L 158.090379 -187.568754 
L 157.942873 -189.628298 
L 157.782834 -191.687842 
L 157.612162 -193.747387 
L 157.433199 -195.806931 
L 157.248753 -197.866476 
L 157.062113 -199.92602 
L 156.877069 -201.985564 
L 156.697908 -204.045109 
L 156.529393 -206.104653 
L 156.37672 -208.164197 
L 156.245442 -210.223742 
L 156.141373 -212.283286 
L 156.070449 -214.34283 
L 156.03858 -216.402375 
L 156.051469 -218.461919 
L 156.114422 -220.521463 
L 156.232155 -222.581008 
L 156.408599 -224.640552 
L 156.646728 -226.700096 
L 156.948406 -228.759641 
L 157.314263 -230.819185 
L 157.743621 -232.878729 
L 158.234458 -234.938274 
L 158.783427 -236.997818 
L 159.385913 -239.057362 
L 160.036152 -241.116907 
L 160.727382 -243.176451 
L 161.452029 -245.235995 
L 162.201931 -247.29554 
L 162.968564 -249.355084 
L 163.743284 -251.414629 
L 164.517567 -253.474173 
L 165.283229 -255.533717 
L 166.032627 -257.593262 
L 166.758832 -259.652806 
L 167.455764 -261.71235 
L 168.118293 -263.771895 
L 168.742301 -265.831439 
L 169.324697 -267.890983 
L 169.863413 -269.950528 
L 170.357349 -272.010072 
L 170.806305 -274.069616 
L 171.210887 -276.129161 
L 171.572399 -278.188705 
L 171.892721 -280.248249 
L 172.174193 -282.307794 
L 175.153807 -282.307794 
L 175.153807 -282.307794 
L 175.435279 -280.248249 
L 175.755601 -278.188705 
L 176.117113 -276.129161 
L 176.521695 -274.069616 
L 176.970651 -272.010072 
L 177.464587 -269.950528 
L 178.003303 -267.890983 
L 178.585699 -265.831439 
L 179.209707 -263.771895 
L 179.872236 -261.71235 
L 180.569168 -259.652806 
L 181.295373 -257.593262 
L 182.044771 -255.533717 
L 182.810433 -253.474173 
L 183.584716 -251.414629 
L 184.359436 -249.355084 
L 185.126069 -247.29554 
L 185.875971 -245.235995 
L 186.600618 -243.176451 
L 187.291848 -241.116907 
L 187.942087 -239.057362 
L 188.544573 -236.997818 
L 189.093542 -234.938274 
L 189.584379 -232.878729 
L 190.013737 -230.819185 
L 190.379594 -228.759641 
L 190.681272 -226.700096 
L 190.919401 -224.640552 
L 191.095845 -222.581008 
L 191.213578 -220.521463 
L 191.276531 -218.461919 
L 191.28942 -216.402375 
L 191.257551 -214.34283 
L 191.186627 -212.283286 
L 191.082558 -210.223742 
L 190.95128 -208.164197 
L 190.798607 -206.104653 
L 190.630092 -204.045109 
L 190.450931 -201.985564 
L 190.265887 -199.92602 
L 190.079247 -197.866476 
L 189.894801 -195.806931 
L 189.715838 -193.747387 
L 189.545166 -191.687842 
L 189.385127 -189.628298 
L 189.237621 -187.568754 
L 189.104128 -185.509209 
L 188.98572 -183.449665 
L 188.88306 -181.390121 
L 188.796397 -179.330576 
L 188.725544 -177.271032 
L 188.669855 -175.211488 
L 188.628193 -173.151943 
L 188.598903 -171.092399 
L 188.579789 -169.032855 
L 188.568111 -166.97331 
L 188.560588 -164.913766 
L 188.553436 -162.854222 
L 188.542423 -160.794677 
L 188.522953 -158.735133 
L 188.490175 -156.675589 
L 188.439114 -154.616044 
L 188.364822 -152.5565 
L 188.262538 -150.496956 
L 188.127854 -148.437411 
L 187.956882 -146.377867 
L 187.7464 -144.318323 
L 187.493988 -142.258778 
L 187.198135 -140.199234 
L 186.858313 -138.139689 
L 186.475017 -136.080145 
L 186.04977 -134.020601 
L 185.585084 -131.961056 
L 185.084397 -129.901512 
L 184.551963 -127.841968 
L 183.992727 -125.782423 
L 183.412175 -123.722879 
L 182.816171 -121.663335 
L 182.210784 -119.60379 
L 181.602122 -117.544246 
L 180.996165 -115.484702 
L 180.39862 -113.425157 
L 179.81479 -111.365613 
L 179.24946 -109.306069 
L 178.706818 -107.246524 
L 178.19039 -105.18698 
L 177.703012 -103.127436 
L 177.246814 -101.067891 
L 176.823237 -99.008347 
L 176.433063 -96.948803 
L 176.076466 -94.889258 
L 175.753067 -92.829714 
L 175.462013 -90.77017 
L 175.202044 -88.710625 
L 174.971577 -86.651081 
L 174.768779 -84.591536 
L 174.591643 -82.531992 
L 174.438053 -80.472448 
L 174.30585 -78.412903 
z
" style="stroke: #3f3f3f; stroke-width: 1.5"/>
    </defs>
    <g clip-path="url(#p96bf9c46e5)">
     <use xlink:href="#m7a5bf24837" x="0" y="345.6" style="fill: #3274a1; stroke: #3f3f3f; stroke-width: 1.5"/>
    </g>
   </g>
   <g id="PolyCollection_4">
    <defs>
     <path id="m9e27bcf330" d="M 210.13265 -68.409635 
L 208.61935 -68.409635 
L 208.424664 -70.483622 
L 208.191919 -72.557609 
L 207.916994 -74.631596 
L 207.596154 -76.705584 
L 207.226281 -78.779571 
L 206.805118 -80.853558 
L 206.331511 -82.927545 
L 205.80563 -85.001532 
L 205.22916 -87.075519 
L 204.605427 -89.149507 
L 203.939462 -91.223494 
L 203.237974 -93.297481 
L 202.509229 -95.371468 
L 201.762842 -97.445455 
L 201.009464 -99.519442 
L 200.260407 -101.59343 
L 199.527197 -103.667417 
L 198.821106 -105.741404 
L 198.152673 -107.815391 
L 197.531262 -109.889378 
L 196.964673 -111.963366 
L 196.458847 -114.037353 
L 196.017676 -116.11134 
L 195.64293 -118.185327 
L 195.334311 -120.259314 
L 195.089619 -122.333301 
L 194.905017 -124.407289 
L 194.775364 -126.481276 
L 194.694598 -128.555263 
L 194.656121 -130.62925 
L 194.653168 -132.703237 
L 194.679121 -134.777224 
L 194.727753 -136.851212 
L 194.793386 -138.925199 
L 194.870961 -140.999186 
L 194.956016 -143.073173 
L 195.044606 -145.14716 
L 195.133157 -147.221147 
L 195.218311 -149.295135 
L 195.296763 -151.369122 
L 195.365126 -153.443109 
L 195.419853 -155.517096 
L 195.457214 -157.591083 
L 195.473357 -159.665071 
L 195.464431 -161.739058 
L 195.426782 -163.813045 
L 195.357194 -165.887032 
L 195.253152 -167.961019 
L 195.113111 -170.035006 
L 194.936737 -172.108994 
L 194.725095 -174.182981 
L 194.480769 -176.256968 
L 194.207895 -178.330955 
L 193.912103 -180.404942 
L 193.600367 -182.478929 
L 193.280772 -184.552917 
L 192.96222 -186.626904 
L 192.654085 -188.700891 
L 192.365859 -190.774878 
L 192.106797 -192.848865 
L 191.88559 -194.922853 
L 191.710095 -196.99684 
L 191.587124 -199.070827 
L 191.522302 -201.144814 
L 191.52 -203.218801 
L 191.58333 -205.292788 
L 191.714195 -207.366776 
L 191.913369 -209.440763 
L 192.180612 -211.51475 
L 192.514771 -213.588737 
L 192.913886 -215.662724 
L 193.375264 -217.736711 
L 193.895539 -219.810699 
L 194.470693 -221.884686 
L 195.096077 -223.958673 
L 195.766403 -226.03266 
L 196.47575 -228.106647 
L 197.217584 -230.180634 
L 197.984799 -232.254622 
L 198.769795 -234.328609 
L 199.564597 -236.402596 
L 200.361005 -238.476583 
L 201.150787 -240.55057 
L 201.925887 -242.624558 
L 202.678648 -244.698545 
L 203.402027 -246.772532 
L 204.089798 -248.846519 
L 204.736716 -250.920506 
L 205.338642 -252.994493 
L 205.892619 -255.068481 
L 206.396888 -257.142468 
L 206.850862 -259.216455 
L 207.255042 -261.290442 
L 207.6109 -263.364429 
L 207.92073 -265.438416 
L 208.187479 -267.512404 
L 208.414577 -269.586391 
L 208.605757 -271.660378 
L 208.764904 -273.734365 
L 209.987096 -273.734365 
L 209.987096 -273.734365 
L 210.146243 -271.660378 
L 210.337423 -269.586391 
L 210.564521 -267.512404 
L 210.83127 -265.438416 
L 211.1411 -263.364429 
L 211.496958 -261.290442 
L 211.901138 -259.216455 
L 212.355112 -257.142468 
L 212.859381 -255.068481 
L 213.413358 -252.994493 
L 214.015284 -250.920506 
L 214.662202 -248.846519 
L 215.349973 -246.772532 
L 216.073352 -244.698545 
L 216.826113 -242.624558 
L 217.601213 -240.55057 
L 218.390995 -238.476583 
L 219.187403 -236.402596 
L 219.982205 -234.328609 
L 220.767201 -232.254622 
L 221.534416 -230.180634 
L 222.27625 -228.106647 
L 222.985597 -226.03266 
L 223.655923 -223.958673 
L 224.281307 -221.884686 
L 224.856461 -219.810699 
L 225.376736 -217.736711 
L 225.838114 -215.662724 
L 226.237229 -213.588737 
L 226.571388 -211.51475 
L 226.838631 -209.440763 
L 227.037805 -207.366776 
L 227.16867 -205.292788 
L 227.232 -203.218801 
L 227.229698 -201.144814 
L 227.164876 -199.070827 
L 227.041905 -196.99684 
L 226.86641 -194.922853 
L 226.645203 -192.848865 
L 226.386141 -190.774878 
L 226.097915 -188.700891 
L 225.78978 -186.626904 
L 225.471228 -184.552917 
L 225.151633 -182.478929 
L 224.839897 -180.404942 
L 224.544105 -178.330955 
L 224.271231 -176.256968 
L 224.026905 -174.182981 
L 223.815263 -172.108994 
L 223.638889 -170.035006 
L 223.498848 -167.961019 
L 223.394806 -165.887032 
L 223.325218 -163.813045 
L 223.287569 -161.739058 
L 223.278643 -159.665071 
L 223.294786 -157.591083 
L 223.332147 -155.517096 
L 223.386874 -153.443109 
L 223.455237 -151.369122 
L 223.533689 -149.295135 
L 223.618843 -147.221147 
L 223.707394 -145.14716 
L 223.795984 -143.073173 
L 223.881039 -140.999186 
L 223.958614 -138.925199 
L 224.024247 -136.851212 
L 224.072879 -134.777224 
L 224.098832 -132.703237 
L 224.095879 -130.62925 
L 224.057402 -128.555263 
L 223.976636 -126.481276 
L 223.846983 -124.407289 
L 223.662381 -122.333301 
L 223.417689 -120.259314 
L 223.10907 -118.185327 
L 222.734324 -116.11134 
L 222.293153 -114.037353 
L 221.787327 -111.963366 
L 221.220738 -109.889378 
L 220.599327 -107.815391 
L 219.930894 -105.741404 
L 219.224803 -103.667417 
L 218.491593 -101.59343 
L 217.742536 -99.519442 
L 216.989158 -97.445455 
L 216.242771 -95.371468 
L 215.514026 -93.297481 
L 214.812538 -91.223494 
L 214.146573 -89.149507 
L 213.52284 -87.075519 
L 212.94637 -85.001532 
L 212.420489 -82.927545 
L 211.946882 -80.853558 
L 211.525719 -78.779571 
L 211.155846 -76.705584 
L 210.835006 -74.631596 
L 210.560081 -72.557609 
L 210.327336 -70.483622 
L 210.13265 -68.409635 
z
" style="stroke: #3f3f3f; stroke-width: 1.5"/>
    </defs>
    <g clip-path="url(#p96bf9c46e5)">
     <use xlink:href="#m9e27bcf330" x="0" y="345.6" style="fill: #e1812c; stroke: #3f3f3f; stroke-width: 1.5"/>
    </g>
   </g>
   <g id="PolyCollection_5">
    <defs>
     <path id="m64b88ed619" d="M 263.968986 -63.281519 
L 261.919014 -63.281519 
L 261.682072 -65.506016 
L 261.404453 -67.730512 
L 261.082722 -69.955008 
L 260.713969 -72.179505 
L 260.296021 -74.404001 
L 259.827638 -76.628497 
L 259.308704 -78.852994 
L 258.740394 -81.07749 
L 258.125294 -83.301986 
L 257.467471 -85.526483 
L 256.77248 -87.750979 
L 256.047294 -89.975475 
L 255.300158 -92.199972 
L 254.540363 -94.424468 
L 253.777954 -96.648964 
L 253.023372 -98.873461 
L 252.287056 -101.097957 
L 251.579021 -103.322453 
L 250.908438 -105.54695 
L 250.28324 -107.771446 
L 249.709778 -109.995942 
L 249.192554 -112.220438 
L 248.734043 -114.444935 
L 248.334623 -116.669431 
L 247.992612 -118.893927 
L 247.70442 -121.118424 
L 247.464801 -123.34292 
L 247.267186 -125.567416 
L 247.104096 -127.791913 
L 246.967574 -130.016409 
L 246.849656 -132.240905 
L 246.742803 -134.465402 
L 246.64031 -136.689898 
L 246.536639 -138.914394 
L 246.427676 -141.138891 
L 246.310889 -143.363387 
L 246.185381 -145.587883 
L 246.051841 -147.81238 
L 245.912403 -150.036876 
L 245.770413 -152.261372 
L 245.630137 -154.485868 
L 245.496418 -156.710365 
L 245.374316 -158.934861 
L 245.268746 -161.159357 
L 245.18415 -163.383854 
L 245.124208 -165.60835 
L 245.091626 -167.832846 
L 245.088 -170.057343 
L 245.11376 -172.281839 
L 245.168218 -174.506335 
L 245.249685 -176.730832 
L 245.35567 -178.955328 
L 245.483134 -181.179824 
L 245.628777 -183.404321 
L 245.789344 -185.628817 
L 245.961915 -187.853313 
L 246.14417 -190.07781 
L 246.334597 -192.302306 
L 246.532636 -194.526802 
L 246.738744 -196.751298 
L 246.954378 -198.975795 
L 247.181901 -201.200291 
L 247.424415 -203.424787 
L 247.685541 -205.649284 
L 247.969148 -207.87378 
L 248.279072 -210.098276 
L 248.618833 -212.322773 
L 248.991363 -214.547269 
L 249.398776 -216.771765 
L 249.842194 -218.996262 
L 250.321621 -221.220758 
L 250.83589 -223.445254 
L 251.38267 -225.669751 
L 251.95854 -227.894247 
L 252.559113 -230.118743 
L 253.179196 -232.34324 
L 253.812995 -234.567736 
L 254.454323 -236.792232 
L 255.096825 -239.016728 
L 255.734189 -241.241225 
L 256.360343 -243.465721 
L 256.96963 -245.690217 
L 257.556951 -247.914714 
L 258.117877 -250.13921 
L 258.648723 -252.363706 
L 259.146595 -254.588203 
L 259.609399 -256.812699 
L 260.035825 -259.037195 
L 260.425306 -261.261692 
L 260.777961 -263.486188 
L 261.094514 -265.710684 
L 261.376213 -267.935181 
L 261.624738 -270.159677 
L 261.842105 -272.384173 
L 262.03058 -274.60867 
L 262.192587 -276.833166 
L 262.33063 -279.057662 
L 262.447227 -281.282158 
L 262.544842 -283.506655 
L 263.343158 -283.506655 
L 263.343158 -283.506655 
L 263.440773 -281.282158 
L 263.55737 -279.057662 
L 263.695413 -276.833166 
L 263.85742 -274.60867 
L 264.045895 -272.384173 
L 264.263262 -270.159677 
L 264.511787 -267.935181 
L 264.793486 -265.710684 
L 265.110039 -263.486188 
L 265.462694 -261.261692 
L 265.852175 -259.037195 
L 266.278601 -256.812699 
L 266.741405 -254.588203 
L 267.239277 -252.363706 
L 267.770123 -250.13921 
L 268.331049 -247.914714 
L 268.91837 -245.690217 
L 269.527657 -243.465721 
L 270.153811 -241.241225 
L 270.791175 -239.016728 
L 271.433677 -236.792232 
L 272.075005 -234.567736 
L 272.708804 -232.34324 
L 273.328887 -230.118743 
L 273.92946 -227.894247 
L 274.50533 -225.669751 
L 275.05211 -223.445254 
L 275.566379 -221.220758 
L 276.045806 -218.996262 
L 276.489224 -216.771765 
L 276.896637 -214.547269 
L 277.269167 -212.322773 
L 277.608928 -210.098276 
L 277.918852 -207.87378 
L 278.202459 -205.649284 
L 278.463585 -203.424787 
L 278.706099 -201.200291 
L 278.933622 -198.975795 
L 279.149256 -196.751298 
L 279.355364 -194.526802 
L 279.553403 -192.302306 
L 279.74383 -190.07781 
L 279.926085 -187.853313 
L 280.098656 -185.628817 
L 280.259223 -183.404321 
L 280.404866 -181.179824 
L 280.53233 -178.955328 
L 280.638315 -176.730832 
L 280.719782 -174.506335 
L 280.77424 -172.281839 
L 280.8 -170.057343 
L 280.796374 -167.832846 
L 280.763792 -165.60835 
L 280.70385 -163.383854 
L 280.619254 -161.159357 
L 280.513684 -158.934861 
L 280.391582 -156.710365 
L 280.257863 -154.485868 
L 280.117587 -152.261372 
L 279.975597 -150.036876 
L 279.836159 -147.81238 
L 279.702619 -145.587883 
L 279.577111 -143.363387 
L 279.460324 -141.138891 
L 279.351361 -138.914394 
L 279.24769 -136.689898 
L 279.145197 -134.465402 
L 279.038344 -132.240905 
L 278.920426 -130.016409 
L 278.783904 -127.791913 
L 278.620814 -125.567416 
L 278.423199 -123.34292 
L 278.18358 -121.118424 
L 277.895388 -118.893927 
L 277.553377 -116.669431 
L 277.153957 -114.444935 
L 276.695446 -112.220438 
L 276.178222 -109.995942 
L 275.60476 -107.771446 
L 274.979562 -105.54695 
L 274.308979 -103.322453 
L 273.600944 -101.097957 
L 272.864628 -98.873461 
L 272.110046 -96.648964 
L 271.347637 -94.424468 
L 270.587842 -92.199972 
L 269.840706 -89.975475 
L 269.11552 -87.750979 
L 268.420529 -85.526483 
L 267.762706 -83.301986 
L 267.147606 -81.07749 
L 266.579296 -78.852994 
L 266.060362 -76.628497 
L 265.591979 -74.404001 
L 265.174031 -72.179505 
L 264.805278 -69.955008 
L 264.483547 -67.730512 
L 264.205928 -65.506016 
L 263.968986 -63.281519 
z
" style="stroke: #3f3f3f; stroke-width: 1.5"/>
    </defs>
    <g clip-path="url(#p96bf9c46e5)">
     <use xlink:href="#m64b88ed619" x="0" y="345.6" style="fill: #3274a1; stroke: #3f3f3f; stroke-width: 1.5"/>
    </g>
   </g>
   <g id="PolyCollection_6">
    <defs>
     <path id="m66798a9d67" d="M 299.286713 -59.758488 
L 298.025287 -59.758488 
L 297.866304 -62.007246 
L 297.676602 -64.256004 
L 297.452747 -66.504761 
L 297.191525 -68.753519 
L 296.890097 -71.002277 
L 296.546177 -73.251035 
L 296.158203 -75.499793 
L 295.725503 -77.74855 
L 295.248449 -79.997308 
L 294.728569 -82.246066 
L 294.168632 -84.494824 
L 293.572668 -86.743582 
L 292.945947 -88.99234 
L 292.294883 -91.241097 
L 291.62689 -93.489855 
L 290.950165 -95.738613 
L 290.273438 -97.987371 
L 289.605675 -100.236129 
L 288.955759 -102.484886 
L 288.332166 -104.733644 
L 287.742651 -106.982402 
L 287.193957 -109.23116 
L 286.691579 -111.479918 
L 286.239564 -113.728676 
L 285.840392 -115.977433 
L 285.49492 -118.226191 
L 285.202393 -120.474949 
L 284.960527 -122.723707 
L 284.765652 -124.972465 
L 284.612903 -127.221223 
L 284.496462 -129.46998 
L 284.409812 -131.718738 
L 284.346021 -133.967496 
L 284.298017 -136.216254 
L 284.258865 -138.465012 
L 284.222009 -140.713769 
L 284.1815 -142.962527 
L 284.132181 -145.211285 
L 284.069827 -147.460043 
L 283.991247 -149.708801 
L 283.894338 -151.957559 
L 283.778086 -154.206316 
L 283.642531 -156.455074 
L 283.488687 -158.703832 
L 283.318421 -160.95259 
L 283.134314 -163.201348 
L 282.939494 -165.450105 
L 282.737456 -167.698863 
L 282.531884 -169.947621 
L 282.326486 -172.196379 
L 282.124836 -174.445137 
L 281.930257 -176.693895 
L 281.74573 -178.942652 
L 281.573852 -181.19141 
L 281.416827 -183.440168 
L 281.276512 -185.688926 
L 281.154495 -187.937684 
L 281.052203 -190.186441 
L 280.97104 -192.435199 
L 280.912525 -194.683957 
L 280.878431 -196.932715 
L 280.870899 -199.181473 
L 280.892519 -201.430231 
L 280.946362 -203.678988 
L 281.035957 -205.927746 
L 281.165204 -208.176504 
L 281.338225 -210.425262 
L 281.559167 -212.67402 
L 281.83195 -214.922777 
L 282.15999 -217.171535 
L 282.54592 -219.420293 
L 282.991315 -221.669051 
L 283.496455 -223.917809 
L 284.060144 -226.166567 
L 284.679598 -228.415324 
L 285.350416 -230.664082 
L 286.066644 -232.91284 
L 286.820917 -235.161598 
L 287.604688 -237.410356 
L 288.408517 -239.659114 
L 289.222413 -241.907871 
L 290.036195 -244.156629 
L 290.839857 -246.405387 
L 291.623924 -248.654145 
L 292.379751 -250.902903 
L 293.099791 -253.15166 
L 293.777775 -255.400418 
L 294.408841 -257.649176 
L 294.989577 -259.897934 
L 295.518002 -262.146692 
L 295.993489 -264.39545 
L 296.416633 -266.644207 
L 296.789088 -268.892965 
L 297.113378 -271.141723 
L 297.392698 -273.390481 
L 297.630718 -275.639239 
L 297.831392 -277.887996 
L 297.998797 -280.136754 
L 298.136984 -282.385512 
L 299.175016 -282.385512 
L 299.175016 -282.385512 
L 299.313203 -280.136754 
L 299.480608 -277.887996 
L 299.681282 -275.639239 
L 299.919302 -273.390481 
L 300.198622 -271.141723 
L 300.522912 -268.892965 
L 300.895367 -266.644207 
L 301.318511 -264.39545 
L 301.793998 -262.146692 
L 302.322423 -259.897934 
L 302.903159 -257.649176 
L 303.534225 -255.400418 
L 304.212209 -253.15166 
L 304.932249 -250.902903 
L 305.688076 -248.654145 
L 306.472143 -246.405387 
L 307.275805 -244.156629 
L 308.089587 -241.907871 
L 308.903483 -239.659114 
L 309.707312 -237.410356 
L 310.491083 -235.161598 
L 311.245356 -232.91284 
L 311.961584 -230.664082 
L 312.632402 -228.415324 
L 313.251856 -226.166567 
L 313.815545 -223.917809 
L 314.320685 -221.669051 
L 314.76608 -219.420293 
L 315.15201 -217.171535 
L 315.48005 -214.922777 
L 315.752833 -212.67402 
L 315.973775 -210.425262 
L 316.146796 -208.176504 
L 316.276043 -205.927746 
L 316.365638 -203.678988 
L 316.419481 -201.430231 
L 316.441101 -199.181473 
L 316.433569 -196.932715 
L 316.399475 -194.683957 
L 316.34096 -192.435199 
L 316.259797 -190.186441 
L 316.157505 -187.937684 
L 316.035488 -185.688926 
L 315.895173 -183.440168 
L 315.738148 -181.19141 
L 315.56627 -178.942652 
L 315.381743 -176.693895 
L 315.187164 -174.445137 
L 314.985514 -172.196379 
L 314.780116 -169.947621 
L 314.574544 -167.698863 
L 314.372506 -165.450105 
L 314.177686 -163.201348 
L 313.993579 -160.95259 
L 313.823313 -158.703832 
L 313.669469 -156.455074 
L 313.533914 -154.206316 
L 313.417662 -151.957559 
L 313.320753 -149.708801 
L 313.242173 -147.460043 
L 313.179819 -145.211285 
L 313.1305 -142.962527 
L 313.089991 -140.713769 
L 313.053135 -138.465012 
L 313.013983 -136.216254 
L 312.965979 -133.967496 
L 312.902188 -131.718738 
L 312.815538 -129.46998 
L 312.699097 -127.221223 
L 312.546348 -124.972465 
L 312.351473 -122.723707 
L 312.109607 -120.474949 
L 311.81708 -118.226191 
L 311.471608 -115.977433 
L 311.072436 -113.728676 
L 310.620421 -111.479918 
L 310.118043 -109.23116 
L 309.569349 -106.982402 
L 308.979834 -104.733644 
L 308.356241 -102.484886 
L 307.706325 -100.236129 
L 307.038562 -97.987371 
L 306.361835 -95.738613 
L 305.68511 -93.489855 
L 305.017117 -91.241097 
L 304.366053 -88.99234 
L 303.739332 -86.743582 
L 303.143368 -84.494824 
L 302.583431 -82.246066 
L 302.063551 -79.997308 
L 301.586497 -77.74855 
L 301.153797 -75.499793 
L 300.765823 -73.251035 
L 300.421903 -71.002277 
L 300.120475 -68.753519 
L 299.859253 -66.504761 
L 299.635398 -64.256004 
L 299.445696 -62.007246 
L 299.286713 -59.758488 
z
" style="stroke: #3f3f3f; stroke-width: 1.5"/>
    </defs>
    <g clip-path="url(#p96bf9c46e5)">
     <use xlink:href="#m66798a9d67" x="0" y="345.6" style="fill: #e1812c; stroke: #3f3f3f; stroke-width: 1.5"/>
    </g>
   </g>
   <g id="PolyCollection_7">
    <defs>
     <path id="m1a9c30f28e" d="M 353.373336 -50.112 
L 351.074664 -50.112 
L 350.826869 -52.555636 
L 350.538609 -54.999273 
L 350.206324 -57.442909 
L 349.8268 -59.886545 
L 349.397326 -62.330182 
L 348.91587 -64.773818 
L 348.38124 -67.217455 
L 347.793253 -69.661091 
L 347.152873 -72.104727 
L 346.462337 -74.548364 
L 345.72524 -76.992 
L 344.946579 -79.435636 
L 344.132753 -81.879273 
L 343.291503 -84.322909 
L 342.431806 -86.766545 
L 341.563709 -89.210182 
L 340.698113 -91.653818 
L 339.846512 -94.097455 
L 339.020703 -96.541091 
L 338.232463 -98.984727 
L 337.493221 -101.428364 
L 336.813737 -103.872 
L 336.203785 -106.315636 
L 335.671883 -108.759273 
L 335.225052 -111.202909 
L 334.868638 -113.646545 
L 334.606183 -116.090182 
L 334.439364 -118.533818 
L 334.368 -120.977455 
L 334.390112 -123.421091 
L 334.502045 -125.864727 
L 334.698638 -128.308364 
L 334.97343 -130.752 
L 335.3189 -133.195636 
L 335.726718 -135.639273 
L 336.188011 -138.082909 
L 336.693612 -140.526545 
L 337.234303 -142.970182 
L 337.801035 -145.413818 
L 338.385114 -147.857455 
L 338.978354 -150.301091 
L 339.573199 -152.744727 
L 340.162796 -155.188364 
L 340.741048 -157.632 
L 341.302618 -160.075636 
L 341.842914 -162.519273 
L 342.358052 -164.962909 
L 342.844795 -167.406545 
L 343.300494 -169.850182 
L 343.723017 -172.293818 
L 344.110689 -174.737455 
L 344.462239 -177.181091 
L 344.776766 -179.624727 
L 345.053716 -182.068364 
L 345.292883 -184.512 
L 345.494426 -186.955636 
L 345.658903 -189.399273 
L 345.787311 -191.842909 
L 345.881137 -194.286545 
L 345.942401 -196.730182 
L 345.973694 -199.173818 
L 345.978199 -201.617455 
L 345.959691 -204.061091 
L 345.922505 -206.504727 
L 345.871481 -208.948364 
L 345.811874 -211.392 
L 345.749234 -213.835636 
L 345.689264 -216.279273 
L 345.637652 -218.722909 
L 345.599896 -221.166545 
L 345.581123 -223.610182 
L 345.585915 -226.053818 
L 345.618146 -228.497455 
L 345.68085 -230.941091 
L 345.776115 -233.384727 
L 345.905018 -235.828364 
L 346.067596 -238.272 
L 346.262865 -240.715636 
L 346.488878 -243.159273 
L 346.742816 -245.602909 
L 347.021118 -248.046545 
L 347.319633 -250.490182 
L 347.633786 -252.933818 
L 347.958753 -255.377455 
L 348.289641 -257.821091 
L 348.621654 -260.264727 
L 348.950237 -262.708364 
L 349.271213 -265.152 
L 349.580885 -267.595636 
L 349.876105 -270.039273 
L 350.154327 -272.482909 
L 350.413623 -274.926545 
L 350.652673 -277.370182 
L 350.870739 -279.813818 
L 351.067616 -282.257455 
L 351.243567 -284.701091 
L 351.399254 -287.144727 
L 351.535666 -289.588364 
L 351.654036 -292.032 
L 352.793964 -292.032 
L 352.793964 -292.032 
L 352.912334 -289.588364 
L 353.048746 -287.144727 
L 353.204433 -284.701091 
L 353.380384 -282.257455 
L 353.577261 -279.813818 
L 353.795327 -277.370182 
L 354.034377 -274.926545 
L 354.293673 -272.482909 
L 354.571895 -270.039273 
L 354.867115 -267.595636 
L 355.176787 -265.152 
L 355.497763 -262.708364 
L 355.826346 -260.264727 
L 356.158359 -257.821091 
L 356.489247 -255.377455 
L 356.814214 -252.933818 
L 357.128367 -250.490182 
L 357.426882 -248.046545 
L 357.705184 -245.602909 
L 357.959122 -243.159273 
L 358.185135 -240.715636 
L 358.380404 -238.272 
L 358.542982 -235.828364 
L 358.671885 -233.384727 
L 358.76715 -230.941091 
L 358.829854 -228.497455 
L 358.862085 -226.053818 
L 358.866877 -223.610182 
L 358.848104 -221.166545 
L 358.810348 -218.722909 
L 358.758736 -216.279273 
L 358.698766 -213.835636 
L 358.636126 -211.392 
L 358.576519 -208.948364 
L 358.525495 -206.504727 
L 358.488309 -204.061091 
L 358.469801 -201.617455 
L 358.474306 -199.173818 
L 358.505599 -196.730182 
L 358.566863 -194.286545 
L 358.660689 -191.842909 
L 358.789097 -189.399273 
L 358.953574 -186.955636 
L 359.155117 -184.512 
L 359.394284 -182.068364 
L 359.671234 -179.624727 
L 359.985761 -177.181091 
L 360.337311 -174.737455 
L 360.724983 -172.293818 
L 361.147506 -169.850182 
L 361.603205 -167.406545 
L 362.089948 -164.962909 
L 362.605086 -162.519273 
L 363.145382 -160.075636 
L 363.706952 -157.632 
L 364.285204 -155.188364 
L 364.874801 -152.744727 
L 365.469646 -150.301091 
L 366.062886 -147.857455 
L 366.646965 -145.413818 
L 367.213697 -142.970182 
L 367.754388 -140.526545 
L 368.259989 -138.082909 
L 368.721282 -135.639273 
L 369.1291 -133.195636 
L 369.47457 -130.752 
L 369.749362 -128.308364 
L 369.945955 -125.864727 
L 370.057888 -123.421091 
L 370.08 -120.977455 
L 370.008636 -118.533818 
L 369.841817 -116.090182 
L 369.579362 -113.646545 
L 369.222948 -111.202909 
L 368.776117 -108.759273 
L 368.244215 -106.315636 
L 367.634263 -103.872 
L 366.954779 -101.428364 
L 366.215537 -98.984727 
L 365.427297 -96.541091 
L 364.601488 -94.097455 
L 363.749887 -91.653818 
L 362.884291 -89.210182 
L 362.016194 -86.766545 
L 361.156497 -84.322909 
L 360.315247 -81.879273 
L 359.501421 -79.435636 
L 358.72276 -76.992 
L 357.985663 -74.548364 
L 357.295127 -72.104727 
L 356.654747 -69.661091 
L 356.06676 -67.217455 
L 355.53213 -64.773818 
L 355.050674 -62.330182 
L 354.6212 -59.886545 
L 354.241676 -57.442909 
L 353.909391 -54.999273 
L 353.621131 -52.555636 
L 353.373336 -50.112 
z
" style="stroke: #3f3f3f; stroke-width: 1.5"/>
    </defs>
    <g clip-path="url(#p96bf9c46e5)">
     <use xlink:href="#m1a9c30f28e" x="0" y="345.6" style="fill: #3274a1; stroke: #3f3f3f; stroke-width: 1.5"/>
    </g>
   </g>
   <g id="PolyCollection_8">
    <defs>
     <path id="m06466b88c9" d="M 388.828005 -50.192984 
L 387.043995 -50.192984 
L 386.849667 -52.634984 
L 386.622885 -55.076985 
L 386.360561 -57.518985 
L 386.059814 -59.960985 
L 385.718098 -62.402986 
L 385.333333 -64.844986 
L 384.904041 -67.286986 
L 384.429481 -69.728987 
L 383.909774 -72.170987 
L 383.346014 -74.612987 
L 382.740355 -77.054988 
L 382.096071 -79.496988 
L 381.417574 -81.938988 
L 380.710403 -84.380989 
L 379.981158 -86.822989 
L 379.237394 -89.264989 
L 378.487478 -91.70699 
L 377.740398 -94.14899 
L 377.00554 -96.59099 
L 376.292447 -99.032991 
L 375.610555 -101.474991 
L 374.968929 -103.916991 
L 374.376004 -106.358991 
L 373.839354 -108.800992 
L 373.365478 -111.242992 
L 372.95964 -113.684992 
L 372.625743 -116.126993 
L 372.366263 -118.568993 
L 372.182232 -121.010993 
L 372.073273 -123.452994 
L 372.037676 -125.894994 
L 372.072529 -128.336994 
L 372.17386 -130.778995 
L 372.336816 -133.220995 
L 372.555852 -135.662995 
L 372.824909 -138.104996 
L 373.137603 -140.546996 
L 373.487381 -142.988996 
L 373.86767 -145.430997 
L 374.271993 -147.872997 
L 374.694067 -150.314997 
L 375.127865 -152.756998 
L 375.567668 -155.198998 
L 376.008089 -157.640998 
L 376.444087 -160.082999 
L 376.870973 -162.524999 
L 377.284403 -164.966999 
L 377.680378 -167.409 
L 378.055249 -169.851 
L 378.40572 -172.293 
L 378.728863 -174.735 
L 379.022145 -177.177001 
L 379.283459 -179.619001 
L 379.511163 -182.061001 
L 379.704128 -184.503002 
L 379.861785 -186.945002 
L 379.984179 -189.387002 
L 380.07201 -191.829003 
L 380.12668 -194.271003 
L 380.15031 -196.713003 
L 380.145762 -199.155004 
L 380.116625 -201.597004 
L 380.067183 -204.039004 
L 380.002356 -206.481005 
L 379.927614 -208.923005 
L 379.848859 -211.365005 
L 379.772283 -213.807006 
L 379.7042 -216.249006 
L 379.65086 -218.691006 
L 379.618253 -221.133007 
L 379.611912 -223.575007 
L 379.636716 -226.017007 
L 379.696713 -228.459008 
L 379.794974 -230.901008 
L 379.933473 -233.343008 
L 380.113013 -235.785009 
L 380.3332 -238.227009 
L 380.592457 -240.669009 
L 380.888099 -243.111009 
L 381.216439 -245.55301 
L 381.572937 -247.99501 
L 381.952388 -250.43701 
L 382.349113 -252.879011 
L 382.757178 -255.321011 
L 383.1706 -257.763011 
L 383.583549 -260.205012 
L 383.990531 -262.647012 
L 384.386537 -265.089012 
L 384.767171 -267.531013 
L 385.128733 -269.973013 
L 385.468275 -272.415013 
L 385.783613 -274.857014 
L 386.073319 -277.299014 
L 386.33667 -279.741014 
L 386.573593 -282.183015 
L 386.784577 -284.625015 
L 386.970588 -287.067015 
L 387.132969 -289.509016 
L 387.273346 -291.951016 
L 388.598654 -291.951016 
L 388.598654 -291.951016 
L 388.739031 -289.509016 
L 388.901412 -287.067015 
L 389.087423 -284.625015 
L 389.298407 -282.183015 
L 389.53533 -279.741014 
L 389.798681 -277.299014 
L 390.088387 -274.857014 
L 390.403725 -272.415013 
L 390.743267 -269.973013 
L 391.104829 -267.531013 
L 391.485463 -265.089012 
L 391.881469 -262.647012 
L 392.288451 -260.205012 
L 392.7014 -257.763011 
L 393.114822 -255.321011 
L 393.522887 -252.879011 
L 393.919612 -250.43701 
L 394.299063 -247.99501 
L 394.655561 -245.55301 
L 394.983901 -243.111009 
L 395.279543 -240.669009 
L 395.5388 -238.227009 
L 395.758987 -235.785009 
L 395.938527 -233.343008 
L 396.077026 -230.901008 
L 396.175287 -228.459008 
L 396.235284 -226.017007 
L 396.260088 -223.575007 
L 396.253747 -221.133007 
L 396.22114 -218.691006 
L 396.1678 -216.249006 
L 396.099717 -213.807006 
L 396.023141 -211.365005 
L 395.944386 -208.923005 
L 395.869644 -206.481005 
L 395.804817 -204.039004 
L 395.755375 -201.597004 
L 395.726238 -199.155004 
L 395.72169 -196.713003 
L 395.74532 -194.271003 
L 395.79999 -191.829003 
L 395.887821 -189.387002 
L 396.010215 -186.945002 
L 396.167872 -184.503002 
L 396.360837 -182.061001 
L 396.588541 -179.619001 
L 396.849855 -177.177001 
L 397.143137 -174.735 
L 397.46628 -172.293 
L 397.816751 -169.851 
L 398.191622 -167.409 
L 398.587597 -164.966999 
L 399.001027 -162.524999 
L 399.427913 -160.082999 
L 399.863911 -157.640998 
L 400.304332 -155.198998 
L 400.744135 -152.756998 
L 401.177933 -150.314997 
L 401.600007 -147.872997 
L 402.00433 -145.430997 
L 402.384619 -142.988996 
L 402.734397 -140.546996 
L 403.047091 -138.104996 
L 403.316148 -135.662995 
L 403.535184 -133.220995 
L 403.69814 -130.778995 
L 403.799471 -128.336994 
L 403.834324 -125.894994 
L 403.798727 -123.452994 
L 403.689768 -121.010993 
L 403.505737 -118.568993 
L 403.246257 -116.126993 
L 402.91236 -113.684992 
L 402.506522 -111.242992 
L 402.032646 -108.800992 
L 401.495996 -106.358991 
L 400.903071 -103.916991 
L 400.261445 -101.474991 
L 399.579553 -99.032991 
L 398.86646 -96.59099 
L 398.131602 -94.14899 
L 397.384522 -91.70699 
L 396.634606 -89.264989 
L 395.890842 -86.822989 
L 395.161597 -84.380989 
L 394.454426 -81.938988 
L 393.775929 -79.496988 
L 393.131645 -77.054988 
L 392.525986 -74.612987 
L 391.962226 -72.170987 
L 391.442519 -69.728987 
L 390.967959 -67.286986 
L 390.538667 -64.844986 
L 390.153902 -62.402986 
L 389.812186 -59.960985 
L 389.511439 -57.518985 
L 389.249115 -55.076985 
L 389.022333 -52.634984 
L 388.828005 -50.192984 
z
" style="stroke: #3f3f3f; stroke-width: 1.5"/>
    </defs>
    <g clip-path="url(#p96bf9c46e5)">
     <use xlink:href="#m06466b88c9" x="0" y="345.6" style="fill: #e1812c; stroke: #3f3f3f; stroke-width: 1.5"/>
    </g>
   </g>
   <g id="matplotlib.axis_1">
    <g id="xtick_1">
     <g id="line2d_1">
      <defs>
       <path id="md501fdfca1" d="M 0 0 
L 0 3.5 
" style="stroke: #000000; stroke-width: 0.8"/>
      </defs>
      <g>
       <use xlink:href="#md501fdfca1" x="102.24" y="307.584" style="stroke: #000000; stroke-width: 0.8"/>
      </g>
     </g>
     <g id="text_1">
      <!-- Control -->
      <g transform="translate(84.168906 322.182437)scale(0.1 -0.1)">
       <defs>
        <path id="DejaVuSans-43" d="M 4122 4306 
L 4122 3641 
Q 3803 3938 3442 4084 
Q 3081 4231 2675 4231 
Q 1875 4231 1450 3742 
Q 1025 3253 1025 2328 
Q 1025 1406 1450 917 
Q 1875 428 2675 428 
Q 3081 428 3442 575 
Q 3803 722 4122 1019 
L 4122 359 
Q 3791 134 3420 21 
Q 3050 -91 2638 -91 
Q 1578 -91 968 557 
Q 359 1206 359 2328 
Q 359 3453 968 4101 
Q 1578 4750 2638 4750 
Q 3056 4750 3426 4639 
Q 3797 4528 4122 4306 
z
" transform="scale(0.015625)"/>
        <path id="DejaVuSans-6f" d="M 1959 3097 
Q 1497 3097 1228 2736 
Q 959 2375 959 1747 
Q 959 1119 1226 758 
Q 1494 397 1959 397 
Q 2419 397 2687 759 
Q 2956 1122 2956 1747 
Q 2956 2369 2687 2733 
Q 2419 3097 1959 3097 
z
M 1959 3584 
Q 2709 3584 3137 3096 
Q 3566 2609 3566 1747 
Q 3566 888 3137 398 
Q 2709 -91 1959 -91 
Q 1206 -91 779 398 
Q 353 888 353 1747 
Q 353 2609 779 3096 
Q 1206 3584 1959 3584 
z
" transform="scale(0.015625)"/>
        <path id="DejaVuSans-6e" d="M 3513 2113 
L 3513 0 
L 2938 0 
L 2938 2094 
Q 2938 2591 2744 2837 
Q 2550 3084 2163 3084 
Q 1697 3084 1428 2787 
Q 1159 2491 1159 1978 
L 1159 0 
L 581 0 
L 581 3500 
L 1159 3500 
L 1159 2956 
Q 1366 3272 1645 3428 
Q 1925 3584 2291 3584 
Q 2894 3584 3203 3211 
Q 3513 2838 3513 2113 
z
" transform="scale(0.015625)"/>
        <path id="DejaVuSans-74" d="M 1172 4494 
L 1172 3500 
L 2356 3500 
L 2356 3053 
L 1172 3053 
L 1172 1153 
Q 1172 725 1289 603 
Q 1406 481 1766 481 
L 2356 481 
L 2356 0 
L 1766 0 
Q 1100 0 847 248 
Q 594 497 594 1153 
L 594 3053 
L 172 3053 
L 172 3500 
L 594 3500 
L 594 4494 
L 1172 4494 
z
" transform="scale(0.015625)"/>
        <path id="DejaVuSans-72" d="M 2631 2963 
Q 2534 3019 2420 3045 
Q 2306 3072 2169 3072 
Q 1681 3072 1420 2755 
Q 1159 2438 1159 1844 
L 1159 0 
L 581 0 
L 581 3500 
L 1159 3500 
L 1159 2956 
Q 1341 3275 1631 3429 
Q 1922 3584 2338 3584 
Q 2397 3584 2469 3576 
Q 2541 3569 2628 3553 
L 2631 2963 
z
" transform="scale(0.015625)"/>
        <path id="DejaVuSans-6c" d="M 603 4863 
L 1178 4863 
L 1178 0 
L 603 0 
L 603 4863 
z
" transform="scale(0.015625)"/>
       </defs>
       <use xlink:href="#DejaVuSans-43"/>
       <use xlink:href="#DejaVuSans-6f" x="69.824219"/>
       <use xlink:href="#DejaVuSans-6e" x="131.005859"/>
       <use xlink:href="#DejaVuSans-74" x="194.384766"/>
       <use xlink:href="#DejaVuSans-72" x="233.59375"/>
       <use xlink:href="#DejaVuSans-6f" x="272.457031"/>
       <use xlink:href="#DejaVuSans-6c" x="333.638672"/>
      </g>
     </g>
    </g>
    <g id="xtick_2">
     <g id="line2d_2">
      <g>
       <use xlink:href="#md501fdfca1" x="191.52" y="307.584" style="stroke: #000000; stroke-width: 0.8"/>
      </g>
     </g>
     <g id="text_2">
      <!-- Schizophrenia -->
      <g transform="translate(156.370781 322.182437)scale(0.1 -0.1)">
       <defs>
        <path id="DejaVuSans-53" d="M 3425 4513 
L 3425 3897 
Q 3066 4069 2747 4153 
Q 2428 4238 2131 4238 
Q 1616 4238 1336 4038 
Q 1056 3838 1056 3469 
Q 1056 3159 1242 3001 
Q 1428 2844 1947 2747 
L 2328 2669 
Q 3034 2534 3370 2195 
Q 3706 1856 3706 1288 
Q 3706 609 3251 259 
Q 2797 -91 1919 -91 
Q 1588 -91 1214 -16 
Q 841 59 441 206 
L 441 856 
Q 825 641 1194 531 
Q 1563 422 1919 422 
Q 2459 422 2753 634 
Q 3047 847 3047 1241 
Q 3047 1584 2836 1778 
Q 2625 1972 2144 2069 
L 1759 2144 
Q 1053 2284 737 2584 
Q 422 2884 422 3419 
Q 422 4038 858 4394 
Q 1294 4750 2059 4750 
Q 2388 4750 2728 4690 
Q 3069 4631 3425 4513 
z
" transform="scale(0.015625)"/>
        <path id="DejaVuSans-63" d="M 3122 3366 
L 3122 2828 
Q 2878 2963 2633 3030 
Q 2388 3097 2138 3097 
Q 1578 3097 1268 2742 
Q 959 2388 959 1747 
Q 959 1106 1268 751 
Q 1578 397 2138 397 
Q 2388 397 2633 464 
Q 2878 531 3122 666 
L 3122 134 
Q 2881 22 2623 -34 
Q 2366 -91 2075 -91 
Q 1284 -91 818 406 
Q 353 903 353 1747 
Q 353 2603 823 3093 
Q 1294 3584 2113 3584 
Q 2378 3584 2631 3529 
Q 2884 3475 3122 3366 
z
" transform="scale(0.015625)"/>
        <path id="DejaVuSans-68" d="M 3513 2113 
L 3513 0 
L 2938 0 
L 2938 2094 
Q 2938 2591 2744 2837 
Q 2550 3084 2163 3084 
Q 1697 3084 1428 2787 
Q 1159 2491 1159 1978 
L 1159 0 
L 581 0 
L 581 4863 
L 1159 4863 
L 1159 2956 
Q 1366 3272 1645 3428 
Q 1925 3584 2291 3584 
Q 2894 3584 3203 3211 
Q 3513 2838 3513 2113 
z
" transform="scale(0.015625)"/>
        <path id="DejaVuSans-69" d="M 603 3500 
L 1178 3500 
L 1178 0 
L 603 0 
L 603 3500 
z
M 603 4863 
L 1178 4863 
L 1178 4134 
L 603 4134 
L 603 4863 
z
" transform="scale(0.015625)"/>
        <path id="DejaVuSans-7a" d="M 353 3500 
L 3084 3500 
L 3084 2975 
L 922 459 
L 3084 459 
L 3084 0 
L 275 0 
L 275 525 
L 2438 3041 
L 353 3041 
L 353 3500 
z
" transform="scale(0.015625)"/>
        <path id="DejaVuSans-70" d="M 1159 525 
L 1159 -1331 
L 581 -1331 
L 581 3500 
L 1159 3500 
L 1159 2969 
Q 1341 3281 1617 3432 
Q 1894 3584 2278 3584 
Q 2916 3584 3314 3078 
Q 3713 2572 3713 1747 
Q 3713 922 3314 415 
Q 2916 -91 2278 -91 
Q 1894 -91 1617 61 
Q 1341 213 1159 525 
z
M 3116 1747 
Q 3116 2381 2855 2742 
Q 2594 3103 2138 3103 
Q 1681 3103 1420 2742 
Q 1159 2381 1159 1747 
Q 1159 1113 1420 752 
Q 1681 391 2138 391 
Q 2594 391 2855 752 
Q 3116 1113 3116 1747 
z
" transform="scale(0.015625)"/>
        <path id="DejaVuSans-65" d="M 3597 1894 
L 3597 1613 
L 953 1613 
Q 991 1019 1311 708 
Q 1631 397 2203 397 
Q 2534 397 2845 478 
Q 3156 559 3463 722 
L 3463 178 
Q 3153 47 2828 -22 
Q 2503 -91 2169 -91 
Q 1331 -91 842 396 
Q 353 884 353 1716 
Q 353 2575 817 3079 
Q 1281 3584 2069 3584 
Q 2775 3584 3186 3129 
Q 3597 2675 3597 1894 
z
M 3022 2063 
Q 3016 2534 2758 2815 
Q 2500 3097 2075 3097 
Q 1594 3097 1305 2825 
Q 1016 2553 972 2059 
L 3022 2063 
z
" transform="scale(0.015625)"/>
        <path id="DejaVuSans-61" d="M 2194 1759 
Q 1497 1759 1228 1600 
Q 959 1441 959 1056 
Q 959 750 1161 570 
Q 1363 391 1709 391 
Q 2188 391 2477 730 
Q 2766 1069 2766 1631 
L 2766 1759 
L 2194 1759 
z
M 3341 1997 
L 3341 0 
L 2766 0 
L 2766 531 
Q 2569 213 2275 61 
Q 1981 -91 1556 -91 
Q 1019 -91 701 211 
Q 384 513 384 1019 
Q 384 1609 779 1909 
Q 1175 2209 1959 2209 
L 2766 2209 
L 2766 2266 
Q 2766 2663 2505 2880 
Q 2244 3097 1772 3097 
Q 1472 3097 1187 3025 
Q 903 2953 641 2809 
L 641 3341 
Q 956 3463 1253 3523 
Q 1550 3584 1831 3584 
Q 2591 3584 2966 3190 
Q 3341 2797 3341 1997 
z
" transform="scale(0.015625)"/>
       </defs>
       <use xlink:href="#DejaVuSans-53"/>
       <use xlink:href="#DejaVuSans-63" x="63.476562"/>
       <use xlink:href="#DejaVuSans-68" x="118.457031"/>
       <use xlink:href="#DejaVuSans-69" x="181.835938"/>
       <use xlink:href="#DejaVuSans-7a" x="209.619141"/>
       <use xlink:href="#DejaVuSans-6f" x="262.109375"/>
       <use xlink:href="#DejaVuSans-70" x="323.291016"/>
       <use xlink:href="#DejaVuSans-68" x="386.767578"/>
       <use xlink:href="#DejaVuSans-72" x="450.146484"/>
       <use xlink:href="#DejaVuSans-65" x="489.009766"/>
       <use xlink:href="#DejaVuSans-6e" x="550.533203"/>
       <use xlink:href="#DejaVuSans-69" x="613.912109"/>
       <use xlink:href="#DejaVuSans-61" x="641.695312"/>
      </g>
     </g>
    </g>
    <g id="xtick_3">
     <g id="line2d_3">
      <g>
       <use xlink:href="#md501fdfca1" x="280.8" y="307.584" style="stroke: #000000; stroke-width: 0.8"/>
      </g>
     </g>
     <g id="text_3">
      <!-- Bipolar -->
      <g transform="translate(263.238281 322.182437)scale(0.1 -0.1)">
       <defs>
        <path id="DejaVuSans-42" d="M 1259 2228 
L 1259 519 
L 2272 519 
Q 2781 519 3026 730 
Q 3272 941 3272 1375 
Q 3272 1813 3026 2020 
Q 2781 2228 2272 2228 
L 1259 2228 
z
M 1259 4147 
L 1259 2741 
L 2194 2741 
Q 2656 2741 2882 2914 
Q 3109 3088 3109 3444 
Q 3109 3797 2882 3972 
Q 2656 4147 2194 4147 
L 1259 4147 
z
M 628 4666 
L 2241 4666 
Q 2963 4666 3353 4366 
Q 3744 4066 3744 3513 
Q 3744 3084 3544 2831 
Q 3344 2578 2956 2516 
Q 3422 2416 3680 2098 
Q 3938 1781 3938 1306 
Q 3938 681 3513 340 
Q 3088 0 2303 0 
L 628 0 
L 628 4666 
z
" transform="scale(0.015625)"/>
       </defs>
       <use xlink:href="#DejaVuSans-42"/>
       <use xlink:href="#DejaVuSans-69" x="68.603516"/>
       <use xlink:href="#DejaVuSans-70" x="96.386719"/>
       <use xlink:href="#DejaVuSans-6f" x="159.863281"/>
       <use xlink:href="#DejaVuSans-6c" x="221.044922"/>
       <use xlink:href="#DejaVuSans-61" x="248.828125"/>
       <use xlink:href="#DejaVuSans-72" x="310.107422"/>
      </g>
     </g>
    </g>
    <g id="xtick_4">
     <g id="line2d_4">
      <g>
       <use xlink:href="#md501fdfca1" x="370.08" y="307.584" style="stroke: #000000; stroke-width: 0.8"/>
      </g>
     </g>
     <g id="text_4">
      <!-- ADHD -->
      <g transform="translate(355.199531 322.182437)scale(0.1 -0.1)">
       <defs>
        <path id="DejaVuSans-41" d="M 2188 4044 
L 1331 1722 
L 3047 1722 
L 2188 4044 
z
M 1831 4666 
L 2547 4666 
L 4325 0 
L 3669 0 
L 3244 1197 
L 1141 1197 
L 716 0 
L 50 0 
L 1831 4666 
z
" transform="scale(0.015625)"/>
        <path id="DejaVuSans-44" d="M 1259 4147 
L 1259 519 
L 2022 519 
Q 2988 519 3436 956 
Q 3884 1394 3884 2338 
Q 3884 3275 3436 3711 
Q 2988 4147 2022 4147 
L 1259 4147 
z
M 628 4666 
L 1925 4666 
Q 3281 4666 3915 4102 
Q 4550 3538 4550 2338 
Q 4550 1131 3912 565 
Q 3275 0 1925 0 
L 628 0 
L 628 4666 
z
" transform="scale(0.015625)"/>
        <path id="DejaVuSans-48" d="M 628 4666 
L 1259 4666 
L 1259 2753 
L 3553 2753 
L 3553 4666 
L 4184 4666 
L 4184 0 
L 3553 0 
L 3553 2222 
L 1259 2222 
L 1259 0 
L 628 0 
L 628 4666 
z
" transform="scale(0.015625)"/>
       </defs>
       <use xlink:href="#DejaVuSans-41"/>
       <use xlink:href="#DejaVuSans-44" x="68.408203"/>
       <use xlink:href="#DejaVuSans-48" x="145.410156"/>
       <use xlink:href="#DejaVuSans-44" x="220.605469"/>
      </g>
     </g>
    </g>
    <g id="text_5">
     <!-- Diagnosis -->
     <g transform="translate(211.856094 335.860562)scale(0.1 -0.1)">
      <defs>
       <path id="DejaVuSans-67" d="M 2906 1791 
Q 2906 2416 2648 2759 
Q 2391 3103 1925 3103 
Q 1463 3103 1205 2759 
Q 947 2416 947 1791 
Q 947 1169 1205 825 
Q 1463 481 1925 481 
Q 2391 481 2648 825 
Q 2906 1169 2906 1791 
z
M 3481 434 
Q 3481 -459 3084 -895 
Q 2688 -1331 1869 -1331 
Q 1566 -1331 1297 -1286 
Q 1028 -1241 775 -1147 
L 775 -588 
Q 1028 -725 1275 -790 
Q 1522 -856 1778 -856 
Q 2344 -856 2625 -561 
Q 2906 -266 2906 331 
L 2906 616 
Q 2728 306 2450 153 
Q 2172 0 1784 0 
Q 1141 0 747 490 
Q 353 981 353 1791 
Q 353 2603 747 3093 
Q 1141 3584 1784 3584 
Q 2172 3584 2450 3431 
Q 2728 3278 2906 2969 
L 2906 3500 
L 3481 3500 
L 3481 434 
z
" transform="scale(0.015625)"/>
       <path id="DejaVuSans-73" d="M 2834 3397 
L 2834 2853 
Q 2591 2978 2328 3040 
Q 2066 3103 1784 3103 
Q 1356 3103 1142 2972 
Q 928 2841 928 2578 
Q 928 2378 1081 2264 
Q 1234 2150 1697 2047 
L 1894 2003 
Q 2506 1872 2764 1633 
Q 3022 1394 3022 966 
Q 3022 478 2636 193 
Q 2250 -91 1575 -91 
Q 1294 -91 989 -36 
Q 684 19 347 128 
L 347 722 
Q 666 556 975 473 
Q 1284 391 1588 391 
Q 1994 391 2212 530 
Q 2431 669 2431 922 
Q 2431 1156 2273 1281 
Q 2116 1406 1581 1522 
L 1381 1569 
Q 847 1681 609 1914 
Q 372 2147 372 2553 
Q 372 3047 722 3315 
Q 1072 3584 1716 3584 
Q 2034 3584 2315 3537 
Q 2597 3491 2834 3397 
z
" transform="scale(0.015625)"/>
      </defs>
      <use xlink:href="#DejaVuSans-44"/>
      <use xlink:href="#DejaVuSans-69" x="77.001953"/>
      <use xlink:href="#DejaVuSans-61" x="104.785156"/>
      <use xlink:href="#DejaVuSans-67" x="166.064453"/>
      <use xlink:href="#DejaVuSans-6e" x="229.541016"/>
      <use xlink:href="#DejaVuSans-6f" x="292.919922"/>
      <use xlink:href="#DejaVuSans-73" x="354.101562"/>
      <use xlink:href="#DejaVuSans-69" x="406.201172"/>
      <use xlink:href="#DejaVuSans-73" x="433.984375"/>
     </g>
    </g>
   </g>
   <g id="matplotlib.axis_2">
    <g id="ytick_1">
     <g id="line2d_5">
      <defs>
       <path id="m7bbe64455e" d="M 0 0 
L -3.5 0 
" style="stroke: #000000; stroke-width: 0.8"/>
      </defs>
      <g>
       <use xlink:href="#m7bbe64455e" x="57.6" y="292.954444" style="stroke: #000000; stroke-width: 0.8"/>
      </g>
     </g>
     <g id="text_6">
      <!-- 10 -->
      <g transform="translate(37.875 296.753663)scale(0.1 -0.1)">
       <defs>
        <path id="DejaVuSans-31" d="M 794 531 
L 1825 531 
L 1825 4091 
L 703 3866 
L 703 4441 
L 1819 4666 
L 2450 4666 
L 2450 531 
L 3481 531 
L 3481 0 
L 794 0 
L 794 531 
z
" transform="scale(0.015625)"/>
        <path id="DejaVuSans-30" d="M 2034 4250 
Q 1547 4250 1301 3770 
Q 1056 3291 1056 2328 
Q 1056 1369 1301 889 
Q 1547 409 2034 409 
Q 2525 409 2770 889 
Q 3016 1369 3016 2328 
Q 3016 3291 2770 3770 
Q 2525 4250 2034 4250 
z
M 2034 4750 
Q 2819 4750 3233 4129 
Q 3647 3509 3647 2328 
Q 3647 1150 3233 529 
Q 2819 -91 2034 -91 
Q 1250 -91 836 529 
Q 422 1150 422 2328 
Q 422 3509 836 4129 
Q 1250 4750 2034 4750 
z
" transform="scale(0.015625)"/>
       </defs>
       <use xlink:href="#DejaVuSans-31"/>
       <use xlink:href="#DejaVuSans-30" x="63.623047"/>
      </g>
     </g>
    </g>
    <g id="ytick_2">
     <g id="line2d_6">
      <g>
       <use xlink:href="#m7bbe64455e" x="57.6" y="246.512701" style="stroke: #000000; stroke-width: 0.8"/>
      </g>
     </g>
     <g id="text_7">
      <!-- 20 -->
      <g transform="translate(37.875 250.31192)scale(0.1 -0.1)">
       <defs>
        <path id="DejaVuSans-32" d="M 1228 531 
L 3431 531 
L 3431 0 
L 469 0 
L 469 531 
Q 828 903 1448 1529 
Q 2069 2156 2228 2338 
Q 2531 2678 2651 2914 
Q 2772 3150 2772 3378 
Q 2772 3750 2511 3984 
Q 2250 4219 1831 4219 
Q 1534 4219 1204 4116 
Q 875 4013 500 3803 
L 500 4441 
Q 881 4594 1212 4672 
Q 1544 4750 1819 4750 
Q 2544 4750 2975 4387 
Q 3406 4025 3406 3419 
Q 3406 3131 3298 2873 
Q 3191 2616 2906 2266 
Q 2828 2175 2409 1742 
Q 1991 1309 1228 531 
z
" transform="scale(0.015625)"/>
       </defs>
       <use xlink:href="#DejaVuSans-32"/>
       <use xlink:href="#DejaVuSans-30" x="63.623047"/>
      </g>
     </g>
    </g>
    <g id="ytick_3">
     <g id="line2d_7">
      <g>
       <use xlink:href="#m7bbe64455e" x="57.6" y="200.070959" style="stroke: #000000; stroke-width: 0.8"/>
      </g>
     </g>
     <g id="text_8">
      <!-- 30 -->
      <g transform="translate(37.875 203.870177)scale(0.1 -0.1)">
       <defs>
        <path id="DejaVuSans-33" d="M 2597 2516 
Q 3050 2419 3304 2112 
Q 3559 1806 3559 1356 
Q 3559 666 3084 287 
Q 2609 -91 1734 -91 
Q 1441 -91 1130 -33 
Q 819 25 488 141 
L 488 750 
Q 750 597 1062 519 
Q 1375 441 1716 441 
Q 2309 441 2620 675 
Q 2931 909 2931 1356 
Q 2931 1769 2642 2001 
Q 2353 2234 1838 2234 
L 1294 2234 
L 1294 2753 
L 1863 2753 
Q 2328 2753 2575 2939 
Q 2822 3125 2822 3475 
Q 2822 3834 2567 4026 
Q 2313 4219 1838 4219 
Q 1578 4219 1281 4162 
Q 984 4106 628 3988 
L 628 4550 
Q 988 4650 1302 4700 
Q 1616 4750 1894 4750 
Q 2613 4750 3031 4423 
Q 3450 4097 3450 3541 
Q 3450 3153 3228 2886 
Q 3006 2619 2597 2516 
z
" transform="scale(0.015625)"/>
       </defs>
       <use xlink:href="#DejaVuSans-33"/>
       <use xlink:href="#DejaVuSans-30" x="63.623047"/>
      </g>
     </g>
    </g>
    <g id="ytick_4">
     <g id="line2d_8">
      <g>
       <use xlink:href="#m7bbe64455e" x="57.6" y="153.629216" style="stroke: #000000; stroke-width: 0.8"/>
      </g>
     </g>
     <g id="text_9">
      <!-- 40 -->
      <g transform="translate(37.875 157.428434)scale(0.1 -0.1)">
       <defs>
        <path id="DejaVuSans-34" d="M 2419 4116 
L 825 1625 
L 2419 1625 
L 2419 4116 
z
M 2253 4666 
L 3047 4666 
L 3047 1625 
L 3713 1625 
L 3713 1100 
L 3047 1100 
L 3047 0 
L 2419 0 
L 2419 1100 
L 313 1100 
L 313 1709 
L 2253 4666 
z
" transform="scale(0.015625)"/>
       </defs>
       <use xlink:href="#DejaVuSans-34"/>
       <use xlink:href="#DejaVuSans-30" x="63.623047"/>
      </g>
     </g>
    </g>
    <g id="ytick_5">
     <g id="line2d_9">
      <g>
       <use xlink:href="#m7bbe64455e" x="57.6" y="107.187473" style="stroke: #000000; stroke-width: 0.8"/>
      </g>
     </g>
     <g id="text_10">
      <!-- 50 -->
      <g transform="translate(37.875 110.986692)scale(0.1 -0.1)">
       <defs>
        <path id="DejaVuSans-35" d="M 691 4666 
L 3169 4666 
L 3169 4134 
L 1269 4134 
L 1269 2991 
Q 1406 3038 1543 3061 
Q 1681 3084 1819 3084 
Q 2600 3084 3056 2656 
Q 3513 2228 3513 1497 
Q 3513 744 3044 326 
Q 2575 -91 1722 -91 
Q 1428 -91 1123 -41 
Q 819 9 494 109 
L 494 744 
Q 775 591 1075 516 
Q 1375 441 1709 441 
Q 2250 441 2565 725 
Q 2881 1009 2881 1497 
Q 2881 1984 2565 2268 
Q 2250 2553 1709 2553 
Q 1456 2553 1204 2497 
Q 953 2441 691 2322 
L 691 4666 
z
" transform="scale(0.015625)"/>
       </defs>
       <use xlink:href="#DejaVuSans-35"/>
       <use xlink:href="#DejaVuSans-30" x="63.623047"/>
      </g>
     </g>
    </g>
    <g id="ytick_6">
     <g id="line2d_10">
      <g>
       <use xlink:href="#m7bbe64455e" x="57.6" y="60.74573" style="stroke: #000000; stroke-width: 0.8"/>
      </g>
     </g>
     <g id="text_11">
      <!-- 60 -->
      <g transform="translate(37.875 64.544949)scale(0.1 -0.1)">
       <defs>
        <path id="DejaVuSans-36" d="M 2113 2584 
Q 1688 2584 1439 2293 
Q 1191 2003 1191 1497 
Q 1191 994 1439 701 
Q 1688 409 2113 409 
Q 2538 409 2786 701 
Q 3034 994 3034 1497 
Q 3034 2003 2786 2293 
Q 2538 2584 2113 2584 
z
M 3366 4563 
L 3366 3988 
Q 3128 4100 2886 4159 
Q 2644 4219 2406 4219 
Q 1781 4219 1451 3797 
Q 1122 3375 1075 2522 
Q 1259 2794 1537 2939 
Q 1816 3084 2150 3084 
Q 2853 3084 3261 2657 
Q 3669 2231 3669 1497 
Q 3669 778 3244 343 
Q 2819 -91 2113 -91 
Q 1303 -91 875 529 
Q 447 1150 447 2328 
Q 447 3434 972 4092 
Q 1497 4750 2381 4750 
Q 2619 4750 2861 4703 
Q 3103 4656 3366 4563 
z
" transform="scale(0.015625)"/>
       </defs>
       <use xlink:href="#DejaVuSans-36"/>
       <use xlink:href="#DejaVuSans-30" x="63.623047"/>
      </g>
     </g>
    </g>
    <g id="text_12">
     <!-- Age -->
     <g transform="translate(31.795313 184.199094)rotate(-90)scale(0.1 -0.1)">
      <use xlink:href="#DejaVuSans-41"/>
      <use xlink:href="#DejaVuSans-67" x="68.408203"/>
      <use xlink:href="#DejaVuSans-65" x="131.884766"/>
     </g>
    </g>
   </g>
   <g id="line2d_11">
    <path d="M 84.384 241.868527 
L 84.384 107.187473 
" clip-path="url(#p96bf9c46e5)" style="fill: none; stroke: #3f3f3f; stroke-width: 1.5; stroke-linecap: square"/>
   </g>
   <g id="line2d_12">
    <path d="M 84.384 227.936004 
L 84.384 153.629216 
" clip-path="url(#p96bf9c46e5)" style="fill: none; stroke: #3f3f3f; stroke-width: 4.5; stroke-linecap: square"/>
   </g>
   <g id="line2d_13">
    <path d="M 120.096 241.868527 
L 120.096 111.831647 
" clip-path="url(#p96bf9c46e5)" style="fill: none; stroke: #3f3f3f; stroke-width: 1.5; stroke-linecap: square"/>
   </g>
   <g id="line2d_14">
    <path d="M 120.096 223.29183 
L 120.096 158.27339 
" clip-path="url(#p96bf9c46e5)" style="fill: none; stroke: #3f3f3f; stroke-width: 4.5; stroke-linecap: square"/>
   </g>
   <g id="line2d_15">
    <path d="M 173.664 218.647656 
L 173.664 111.831647 
" clip-path="url(#p96bf9c46e5)" style="fill: none; stroke: #3f3f3f; stroke-width: 1.5; stroke-linecap: square"/>
   </g>
   <g id="line2d_16">
    <path d="M 173.664 196.587828 
L 173.664 118.797909 
" clip-path="url(#p96bf9c46e5)" style="fill: none; stroke: #3f3f3f; stroke-width: 4.5; stroke-linecap: square"/>
   </g>
   <g id="line2d_17">
    <path d="M 209.376 237.224353 
L 209.376 111.831647 
" clip-path="url(#p96bf9c46e5)" style="fill: none; stroke: #3f3f3f; stroke-width: 1.5; stroke-linecap: square"/>
   </g>
   <g id="line2d_18">
    <path d="M 209.376 208.198264 
L 209.376 139.696693 
" clip-path="url(#p96bf9c46e5)" style="fill: none; stroke: #3f3f3f; stroke-width: 4.5; stroke-linecap: square"/>
   </g>
   <g id="line2d_19">
    <path d="M 262.944 237.224353 
L 262.944 107.187473 
" clip-path="url(#p96bf9c46e5)" style="fill: none; stroke: #3f3f3f; stroke-width: 1.5; stroke-linecap: square"/>
   </g>
   <g id="line2d_20">
    <path d="M 262.944 218.647656 
L 262.944 144.340867 
" clip-path="url(#p96bf9c46e5)" style="fill: none; stroke: #3f3f3f; stroke-width: 4.5; stroke-linecap: square"/>
   </g>
   <g id="line2d_21">
    <path d="M 298.656 241.868527 
L 298.656 107.187473 
" clip-path="url(#p96bf9c46e5)" style="fill: none; stroke: #3f3f3f; stroke-width: 1.5; stroke-linecap: square"/>
   </g>
   <g id="line2d_22">
    <path d="M 298.656 208.198264 
L 298.656 136.213562 
" clip-path="url(#p96bf9c46e5)" style="fill: none; stroke: #3f3f3f; stroke-width: 4.5; stroke-linecap: square"/>
   </g>
   <g id="line2d_23">
    <path d="M 352.224 241.868527 
L 352.224 107.187473 
" clip-path="url(#p96bf9c46e5)" style="fill: none; stroke: #3f3f3f; stroke-width: 1.5; stroke-linecap: square"/>
   </g>
   <g id="line2d_24">
    <path d="M 352.224 232.580179 
L 352.224 167.561739 
" clip-path="url(#p96bf9c46e5)" style="fill: none; stroke: #3f3f3f; stroke-width: 4.5; stroke-linecap: square"/>
   </g>
   <g id="line2d_25">
    <path d="M 387.936 241.868527 
L 387.936 107.187473 
" clip-path="url(#p96bf9c46e5)" style="fill: none; stroke: #3f3f3f; stroke-width: 1.5; stroke-linecap: square"/>
   </g>
   <g id="line2d_26">
    <path d="M 387.936 227.936004 
L 387.936 153.629216 
" clip-path="url(#p96bf9c46e5)" style="fill: none; stroke: #3f3f3f; stroke-width: 4.5; stroke-linecap: square"/>
   </g>
   <g id="patch_5">
    <path d="M 57.6 307.584 
L 57.6 41.472 
" style="fill: none; stroke: #000000; stroke-width: 0.8; stroke-linejoin: miter; stroke-linecap: square"/>
   </g>
   <g id="patch_6">
    <path d="M 414.72 307.584 
L 414.72 41.472 
" style="fill: none; stroke: #000000; stroke-width: 0.8; stroke-linejoin: miter; stroke-linecap: square"/>
   </g>
   <g id="patch_7">
    <path d="M 57.6 307.584 
L 414.72 307.584 
" style="fill: none; stroke: #000000; stroke-width: 0.8; stroke-linejoin: miter; stroke-linecap: square"/>
   </g>
   <g id="patch_8">
    <path d="M 57.6 41.472 
L 414.72 41.472 
" style="fill: none; stroke: #000000; stroke-width: 0.8; stroke-linejoin: miter; stroke-linecap: square"/>
   </g>
   <g id="PathCollection_1">
    <defs>
     <path id="m5ca1602553" d="M 0 1.5 
C 0.397805 1.5 0.77937 1.341951 1.06066 1.06066 
C 1.341951 0.77937 1.5 0.397805 1.5 0 
C 1.5 -0.397805 1.341951 -0.77937 1.06066 -1.06066 
C 0.77937 -1.341951 0.397805 -1.5 0 -1.5 
C -0.397805 -1.5 -0.77937 -1.341951 -1.06066 -1.06066 
C -1.341951 -0.77937 -1.5 -0.397805 -1.5 0 
C -1.5 0.397805 -1.341951 0.77937 -1.06066 1.06066 
C -0.77937 1.341951 -0.397805 1.5 0 1.5 
z
" style="stroke: #3f3f3f"/>
    </defs>
    <g clip-path="url(#p96bf9c46e5)">
     <use xlink:href="#m5ca1602553" x="84.384" y="209.359307" style="fill: #ffffff; stroke: #3f3f3f"/>
    </g>
   </g>
   <g id="PathCollection_2">
    <g clip-path="url(#p96bf9c46e5)">
     <use xlink:href="#m5ca1602553" x="120.096" y="204.715133" style="fill: #ffffff; stroke: #3f3f3f"/>
    </g>
   </g>
   <g id="PathCollection_3">
    <g clip-path="url(#p96bf9c46e5)">
     <use xlink:href="#m5ca1602553" x="173.664" y="155.951303" style="fill: #ffffff; stroke: #3f3f3f"/>
    </g>
   </g>
   <g id="PathCollection_4">
    <g clip-path="url(#p96bf9c46e5)">
     <use xlink:href="#m5ca1602553" x="209.376" y="167.561739" style="fill: #ffffff; stroke: #3f3f3f"/>
    </g>
   </g>
   <g id="PathCollection_5">
    <g clip-path="url(#p96bf9c46e5)">
     <use xlink:href="#m5ca1602553" x="262.944" y="176.850087" style="fill: #ffffff; stroke: #3f3f3f"/>
    </g>
   </g>
   <g id="PathCollection_6">
    <g clip-path="url(#p96bf9c46e5)">
     <use xlink:href="#m5ca1602553" x="298.656" y="169.883826" style="fill: #ffffff; stroke: #3f3f3f"/>
    </g>
   </g>
   <g id="PathCollection_7">
    <g clip-path="url(#p96bf9c46e5)">
     <use xlink:href="#m5ca1602553" x="352.224" y="214.003481" style="fill: #ffffff; stroke: #3f3f3f"/>
    </g>
   </g>
   <g id="PathCollection_8">
    <g clip-path="url(#p96bf9c46e5)">
     <use xlink:href="#m5ca1602553" x="387.936" y="190.78261" style="fill: #ffffff; stroke: #3f3f3f"/>
    </g>
   </g>
   <g id="legend_1">
    <g id="patch_9">
     <path d="M 367.091875 93.506375 
L 407.72 93.506375 
Q 409.72 93.506375 409.72 91.506375 
L 409.72 48.472 
Q 409.72 46.472 407.72 46.472 
L 367.091875 46.472 
Q 365.091875 46.472 365.091875 48.472 
L 365.091875 91.506375 
Q 365.091875 93.506375 367.091875 93.506375 
z
" style="fill: #ffffff; opacity: 0.8; stroke: #cccccc; stroke-linejoin: miter"/>
    </g>
    <g id="text_13">
     <!-- Sex -->
     <g transform="translate(378.283281 58.070438)scale(0.1 -0.1)">
      <defs>
       <path id="DejaVuSans-78" d="M 3513 3500 
L 2247 1797 
L 3578 0 
L 2900 0 
L 1881 1375 
L 863 0 
L 184 0 
L 1544 1831 
L 300 3500 
L 978 3500 
L 1906 2253 
L 2834 3500 
L 3513 3500 
z
" transform="scale(0.015625)"/>
      </defs>
      <use xlink:href="#DejaVuSans-53"/>
      <use xlink:href="#DejaVuSans-65" x="63.476562"/>
      <use xlink:href="#DejaVuSans-78" x="123.25"/>
     </g>
    </g>
    <g id="patch_10">
     <path d="M 369.091875 72.748563 
L 389.091875 72.748563 
L 389.091875 65.748563 
L 369.091875 65.748563 
z
" style="fill: #3274a1; stroke: #3f3f3f; stroke-width: 0.75; stroke-linejoin: miter"/>
    </g>
    <g id="text_14">
     <!-- F -->
     <g transform="translate(397.091875 72.748563)scale(0.1 -0.1)">
      <defs>
       <path id="DejaVuSans-46" d="M 628 4666 
L 3309 4666 
L 3309 4134 
L 1259 4134 
L 1259 2759 
L 3109 2759 
L 3109 2228 
L 1259 2228 
L 1259 0 
L 628 0 
L 628 4666 
z
" transform="scale(0.015625)"/>
      </defs>
      <use xlink:href="#DejaVuSans-46"/>
     </g>
    </g>
    <g id="patch_11">
     <path d="M 369.091875 87.426688 
L 389.091875 87.426688 
L 389.091875 80.426688 
L 369.091875 80.426688 
z
" style="fill: #e1812c; stroke: #3f3f3f; stroke-width: 0.75; stroke-linejoin: miter"/>
    </g>
    <g id="text_15">
     <!-- M -->
     <g transform="translate(397.091875 87.426688)scale(0.1 -0.1)">
      <defs>
       <path id="DejaVuSans-4d" d="M 628 4666 
L 1569 4666 
L 2759 1491 
L 3956 4666 
L 4897 4666 
L 4897 0 
L 4281 0 
L 4281 4097 
L 3078 897 
L 2444 897 
L 1241 4097 
L 1241 0 
L 628 0 
L 628 4666 
z
" transform="scale(0.015625)"/>
      </defs>
      <use xlink:href="#DejaVuSans-4d"/>
     </g>
    </g>
   </g>
  </g>
 </g>
 <defs>
  <clipPath id="p96bf9c46e5">
   <rect x="57.6" y="41.472" width="357.12" height="266.112"/>
  </clipPath>
 </defs>
</svg>
